<svg width="37" height="36" viewBox="0 0 37 36" fill="none" xmlns="http://www.w3.org/2000/svg">
<path d="M12.1837 8.10519C12.9943 8.09014 13.8037 8.17324 14.5944 8.35269C15.2601 8.49803 15.8921 8.76847 16.4568 9.14965C16.9784 9.52869 17.3911 10.0383 17.6535 10.6273C17.9551 11.3515 18.1005 12.1312 18.0805 12.9154C18.1147 13.7766 17.8948 14.6287 17.4481 15.3657C16.9782 16.0618 16.3286 16.6177 15.5683 16.9745C16.6001 17.2527 17.4988 17.8898 18.1027 18.7714C18.6825 19.7055 18.974 20.7898 18.9405 21.8887C18.9597 22.7648 18.7785 23.6338 18.4109 24.4293C18.0711 25.1233 17.5735 25.7281 16.958 26.1953C16.3244 26.6573 15.6113 26.9992 14.8542 27.2038C14.0692 27.421 13.2581 27.5301 12.4436 27.5281H3.5V8.10519H12.1837ZM11.6676 15.961C12.3045 15.9872 12.9315 15.7966 13.446 15.4202C13.6923 15.2008 13.884 14.9269 14.0056 14.6203C14.1272 14.3136 14.1754 13.9828 14.1464 13.6542C14.1629 13.2705 14.0865 12.8884 13.9236 12.5405C13.7855 12.2635 13.5707 12.0319 13.3049 11.8734C13.0356 11.699 12.733 11.5822 12.4163 11.5306C12.0727 11.4641 11.7231 11.4338 11.3731 11.4403H7.55164V15.9783H11.6676V15.961ZM11.8904 24.2301C12.2756 24.2353 12.6599 24.1937 13.0351 24.1063C13.3779 24.0306 13.7031 23.8899 13.9929 23.6918C14.2769 23.4937 14.5063 23.2273 14.66 22.9171C14.8381 22.5215 14.92 22.0893 14.8988 21.656C14.9374 21.2612 14.8851 20.8627 14.7459 20.4912C14.6067 20.1196 14.3843 19.7849 14.0956 19.5126C13.4839 19.0621 12.7343 18.8389 11.9758 18.8815H7.55164V24.2301H11.8904Z" fill="white"/>
<path d="M24.7111 24.1583C25.0291 24.4531 25.4037 24.6801 25.8121 24.8256C26.2206 24.9711 26.6544 25.0321 27.0871 25.0048C27.7731 25.0221 28.4458 24.8134 29.0016 24.4108C29.4536 24.1168 29.796 23.6818 29.9755 23.1733H33.2066C32.8624 24.6209 32.0216 25.9022 30.8306 26.7942C29.688 27.5526 28.3377 27.9367 26.9671 27.8932C25.9888 27.906 25.0179 27.7221 24.1121 27.3524C23.2927 27.0106 22.5578 26.4941 21.9588 25.8389C21.3621 25.1523 20.9036 24.3568 20.6087 23.4962C20.2776 22.5343 20.1156 21.5224 20.1298 20.5052C20.1237 19.505 20.2912 18.5114 20.6248 17.5685C21.0729 16.242 21.9297 15.0916 23.0723 14.2823C24.2148 13.4731 25.5844 13.0465 26.9844 13.064C28.018 13.0423 29.0401 13.2842 29.9544 13.7669C30.7809 14.22 31.4938 14.8547 32.0397 15.6231C32.598 16.4295 32.9982 17.3344 33.219 18.29C33.4612 19.3161 33.5475 20.3728 33.4752 21.4246H23.851C23.773 22.4128 24.0813 23.3928 24.7111 24.1583ZM28.9335 16.7716C28.6642 16.5022 28.3402 16.2936 27.9835 16.16C27.6268 16.0264 27.2456 15.9708 26.8656 15.9969C26.3614 15.9776 25.8609 16.0894 25.4127 16.3211C25.0575 16.5167 24.7438 16.7799 24.4895 17.0958C24.2642 17.392 24.0963 17.7278 23.9945 18.0858C23.9029 18.3844 23.8456 18.6925 23.8238 19.0041H29.7849C29.733 18.1918 29.4371 17.4141 28.936 16.7728L28.9335 16.7716Z" fill="white"/>
<path d="M30.5248 9.4021H23.0552V11.3116H30.5248V9.4021Z" fill="white"/>
</svg>
