<svg width="36" height="36" viewBox="0 0 36 36" fill="none" xmlns="http://www.w3.org/2000/svg">
<path d="M9.564 15.102C9.24488 16.0348 9.08268 17.0141 9.084 18C9.084 19.101 9.282 20.1555 9.648 21.129C10.1042 22.3458 10.8207 23.4481 11.7475 24.359C12.6742 25.2699 13.7888 25.9673 15.0133 26.4023C16.2377 26.8374 17.5425 26.9996 18.8362 26.8777C20.1299 26.7558 21.3814 26.3527 22.503 25.6965H22.5045C24.2716 24.6605 25.6293 23.0492 26.3505 21.132H18.33V15.198H32.7375C33.1101 17.1607 33.0877 19.1781 32.6715 21.132C31.9503 24.5098 30.0853 27.5352 27.3915 29.697C24.7308 31.8395 21.4161 33.0053 18 33C15.4245 33.0014 12.8919 32.3396 10.6465 31.0781C8.40097 29.8167 6.51819 27.9982 5.17952 25.7979C3.84085 23.5975 3.0914 21.0895 3.00339 18.5155C2.91537 15.9415 3.49176 13.3881 4.677 11.1015C5.94146 8.65937 7.85308 6.61194 10.2028 5.1831C12.5526 3.75426 15.2499 2.99904 18 3C21.639 3 24.9765 4.296 27.5745 6.453L22.7145 10.431C21.576 9.72246 20.2925 9.27965 18.9593 9.13551C17.6261 8.99136 16.2776 9.14959 15.014 9.59842C13.7504 10.0472 12.6042 10.7751 11.6606 11.728C10.7171 12.6808 10.0004 13.8341 9.564 15.102Z" fill="white"/>
</svg>
