<svg width="37" height="36" viewBox="0 0 37 36" fill="none" xmlns="http://www.w3.org/2000/svg">
<g clip-path="url(#clip0_7_430)">
<path d="M18.5 3.24141C23.3094 3.24141 23.8789 3.2625 25.7703 3.34687C27.5281 3.42422 28.4773 3.71953 29.1102 3.96563C29.9469 4.28906 30.5516 4.68281 31.1773 5.30859C31.8102 5.94141 32.1969 6.53906 32.5203 7.37578C32.7664 8.00859 33.0617 8.96484 33.1391 10.7156C33.2234 12.6141 33.2445 13.1836 33.2445 17.9859C33.2445 22.7953 33.2234 23.3648 33.1391 25.2563C33.0617 27.0141 32.7664 27.9633 32.5203 28.5961C32.1969 29.4328 31.8031 30.0375 31.1773 30.6633C30.5445 31.2961 29.9469 31.6828 29.1102 32.0062C28.4773 32.2523 27.5211 32.5477 25.7703 32.625C23.8719 32.7094 23.3023 32.7305 18.5 32.7305C13.6906 32.7305 13.1211 32.7094 11.2297 32.625C9.47188 32.5477 8.52266 32.2523 7.88984 32.0062C7.05313 31.6828 6.44844 31.2891 5.82266 30.6633C5.18984 30.0305 4.80312 29.4328 4.47969 28.5961C4.23359 27.9633 3.93828 27.007 3.86094 25.2563C3.77656 23.3578 3.75547 22.7883 3.75547 17.9859C3.75547 13.1766 3.77656 12.607 3.86094 10.7156C3.93828 8.95781 4.23359 8.00859 4.47969 7.37578C4.80312 6.53906 5.19688 5.93437 5.82266 5.30859C6.45547 4.67578 7.05313 4.28906 7.88984 3.96563C8.52266 3.71953 9.47891 3.42422 11.2297 3.34687C13.1211 3.2625 13.6906 3.24141 18.5 3.24141ZM18.5 0C13.6133 0 13.0016 0.0210937 11.082 0.105469C9.16953 0.189844 7.85469 0.499219 6.71563 0.942187C5.52734 1.40625 4.52188 2.01797 3.52344 3.02344C2.51797 4.02187 1.90625 5.02734 1.44219 6.20859C0.999219 7.35469 0.689844 8.6625 0.605469 10.575C0.521094 12.5016 0.5 13.1133 0.5 18C0.5 22.8867 0.521094 23.4984 0.605469 25.418C0.689844 27.3305 0.999219 28.6453 1.44219 29.7844C1.90625 30.9727 2.51797 31.9781 3.52344 32.9766C4.52188 33.975 5.52734 34.5937 6.70859 35.0508C7.85469 35.4937 9.1625 35.8031 11.075 35.8875C12.9945 35.9719 13.6062 35.993 18.493 35.993C23.3797 35.993 23.9914 35.9719 25.9109 35.8875C27.8234 35.8031 29.1383 35.4937 30.2773 35.0508C31.4586 34.5937 32.4641 33.975 33.4625 32.9766C34.4609 31.9781 35.0797 30.9727 35.5367 29.7914C35.9797 28.6453 36.2891 27.3375 36.3734 25.425C36.4578 23.5055 36.4789 22.8937 36.4789 18.007C36.4789 13.1203 36.4578 12.5086 36.3734 10.5891C36.2891 8.67656 35.9797 7.36172 35.5367 6.22266C35.0938 5.02734 34.482 4.02187 33.4766 3.02344C32.4781 2.025 31.4727 1.40625 30.2914 0.949219C29.1453 0.50625 27.8375 0.196875 25.925 0.1125C23.9984 0.0210938 23.3867 0 18.5 0Z" fill="white"/>
<path d="M18.5 8.75391C13.3953 8.75391 9.25391 12.8953 9.25391 18C9.25391 23.1047 13.3953 27.2461 18.5 27.2461C23.6047 27.2461 27.7461 23.1047 27.7461 18C27.7461 12.8953 23.6047 8.75391 18.5 8.75391ZM18.5 23.9977C15.1883 23.9977 12.5023 21.3117 12.5023 18C12.5023 14.6883 15.1883 12.0023 18.5 12.0023C21.8117 12.0023 24.4977 14.6883 24.4977 18C24.4977 21.3117 21.8117 23.9977 18.5 23.9977Z" fill="white"/>
<path d="M30.2703 8.38821C30.2703 9.58352 29.3 10.5468 28.1117 10.5468C26.9164 10.5468 25.9531 9.57649 25.9531 8.38821C25.9531 7.1929 26.9234 6.22961 28.1117 6.22961C29.3 6.22961 30.2703 7.19993 30.2703 8.38821Z" fill="white"/>
</g>
<defs>
<clipPath id="clip0_7_430">
<rect width="36" height="36" fill="white" transform="translate(0.5)"/>
</clipPath>
</defs>
</svg>
