<svg width="37" height="36" viewBox="0 0 37 36" fill="none" xmlns="http://www.w3.org/2000/svg">
<g clip-path="url(#clip0_7_434)">
<path d="M33.8352 0H3.15781C1.68828 0 0.5 1.16016 0.5 2.59453V33.3984C0.5 34.8328 1.68828 36 3.15781 36H33.8352C35.3047 36 36.5 34.8328 36.5 33.4055V2.59453C36.5 1.16016 35.3047 0 33.8352 0ZM11.1805 30.6773H5.83672V13.493H11.1805V30.6773ZM8.50859 11.1516C6.79297 11.1516 5.40781 9.76641 5.40781 8.05781C5.40781 6.34922 6.79297 4.96406 8.50859 4.96406C10.2172 4.96406 11.6023 6.34922 11.6023 8.05781C11.6023 9.75937 10.2172 11.1516 8.50859 11.1516ZM31.1773 30.6773H25.8406V22.3242C25.8406 20.3344 25.8055 17.768 23.0633 17.768C20.2859 17.768 19.8641 19.9406 19.8641 22.1836V30.6773H14.5344V13.493H19.6531V15.8414H19.7234C20.4336 14.4914 22.1773 13.0641 24.7719 13.0641C30.1789 13.0641 31.1773 16.6219 31.1773 21.2484V30.6773Z" fill="white"/>
</g>
<defs>
<clipPath id="clip0_7_434">
<rect width="36" height="36" fill="white" transform="translate(0.5)"/>
</clipPath>
</defs>
</svg>
