<svg width="79" height="17" viewBox="0 0 79 17" fill="none" xmlns="http://www.w3.org/2000/svg">
<circle cx="3" cy="14" r="2.5" fill="#6E2FEB"/>
<path d="M21.0724 5.35032C21.9128 5.35032 22.6548 5.52474 23.2983 5.87358C23.9549 6.20901 24.4671 6.73229 24.8348 7.4434C25.2156 8.14109 25.4061 9.04004 25.4061 10.1403V16.339H22.3331V10.6233C22.3331 9.75115 22.1558 9.10713 21.8012 8.6912C21.4466 8.27526 20.9476 8.0673 20.3041 8.0673C19.8576 8.0673 19.4571 8.17463 19.1025 8.38931C18.7479 8.59057 18.4721 8.89916 18.2751 9.31509C18.0782 9.73103 17.9797 10.261 17.9797 10.905V16.339H14.9067V10.6233C14.9067 9.75115 14.7294 9.10713 14.3748 8.6912C14.0334 8.27526 13.5409 8.0673 12.8974 8.0673C12.4509 8.0673 12.0504 8.17463 11.6958 8.38931C11.3412 8.59057 11.0655 8.89916 10.8685 9.31509C10.6715 9.73103 10.573 10.261 10.573 10.905V16.339H7.5V5.51132H10.4351V8.46981L9.88353 7.6044C10.2512 6.86646 10.77 6.30964 11.4397 5.93396C12.1226 5.54486 12.8974 5.35032 13.7642 5.35032C14.736 5.35032 15.583 5.60524 16.3053 6.11509C17.0407 6.61153 17.5266 7.37631 17.763 8.40943L16.6796 8.10755C17.0341 7.26226 17.5988 6.5914 18.3736 6.09497C19.1616 5.59853 20.0612 5.35032 21.0724 5.35032Z" fill="#FEFFFF"/>
<path d="M28.1605 16.339V5.51132H31.2335V16.339H28.1605ZM29.697 4.00189C29.1323 4.00189 28.6726 3.83417 28.3181 3.49874C27.9635 3.16331 27.7862 2.74738 27.7862 2.25094C27.7862 1.75451 27.9635 1.33857 28.3181 1.00315C28.6726 0.667715 29.1323 0.5 29.697 0.5C30.2617 0.5 30.7213 0.661007 31.0759 0.98302C31.4304 1.29162 31.6077 1.69413 31.6077 2.19057C31.6077 2.71384 31.4304 3.1499 31.0759 3.49874C30.7344 3.83417 30.2748 4.00189 29.697 4.00189Z" fill="#FEFFFF"/>
<path d="M34.0854 16.339V5.51132H37.0205V8.57044L36.6069 7.68491C36.9221 6.92013 37.4276 6.34319 38.1237 5.95409C38.8197 5.55157 39.6667 5.35032 40.6648 5.35032V8.24843C40.5335 8.23501 40.4153 8.2283 40.3102 8.2283C40.2052 8.21489 40.0935 8.20818 39.9753 8.20818C39.1349 8.20818 38.452 8.45639 37.9267 8.95283C37.4145 9.43585 37.1584 10.1939 37.1584 11.227V16.339H34.0854Z" fill="#FEFFFF"/>
<path d="M42.5112 16.339V5.51132H45.5842V16.339H42.5112ZM44.0477 4.00189C43.483 4.00189 43.0234 3.83417 42.6688 3.49874C42.3142 3.16331 42.137 2.74738 42.137 2.25094C42.137 1.75451 42.3142 1.33857 42.6688 1.00315C43.0234 0.667715 43.483 0.5 44.0477 0.5C44.6124 0.5 45.0721 0.661007 45.4266 0.98302C45.7812 1.29162 45.9585 1.69413 45.9585 2.19057C45.9585 2.71384 45.7812 3.1499 45.4266 3.49874C45.0852 3.83417 44.6255 4.00189 44.0477 4.00189Z" fill="#FEFFFF"/>
<path d="M54.9368 16.339V14.2258L54.7398 13.7629V9.97925C54.7398 9.30839 54.5362 8.78511 54.1291 8.40943C53.7351 8.03375 53.1245 7.84591 52.2971 7.84591C51.7324 7.84591 51.1743 7.93983 50.6228 8.12767C50.0843 8.3021 49.6247 8.54361 49.2438 8.8522L48.1407 6.65849C48.7186 6.24256 49.4146 5.92055 50.2288 5.69245C51.043 5.46436 51.8703 5.35032 52.7108 5.35032C54.3261 5.35032 55.5802 5.73941 56.4732 6.51761C57.3662 7.29581 57.8128 8.51006 57.8128 10.1604V16.339H54.9368ZM51.7062 16.5C50.8788 16.5 50.1697 16.3591 49.5787 16.0774C48.9878 15.7822 48.5347 15.3864 48.2195 14.8899C47.9043 14.3935 47.7468 13.8367 47.7468 13.2195C47.7468 12.5755 47.8978 12.0119 48.1998 11.5289C48.515 11.0459 49.0075 10.6702 49.6772 10.4019C50.347 10.1201 51.2203 9.97925 52.2971 9.97925H55.114V11.8107H52.632C51.9097 11.8107 51.4107 11.9314 51.1349 12.173C50.8723 12.4145 50.7409 12.7164 50.7409 13.0786C50.7409 13.4811 50.892 13.8031 51.194 14.0447C51.5092 14.2727 51.936 14.3868 52.4744 14.3868C52.9866 14.3868 53.4462 14.266 53.8533 14.0245C54.2604 13.7696 54.5559 13.4006 54.7398 12.9176L55.2125 14.3667C54.9893 15.0644 54.5822 15.5943 53.9912 15.9566C53.4003 16.3189 52.6386 16.5 51.7062 16.5Z" fill="#FEFFFF"/>
<path d="M74.1663 5.35032C75.0068 5.35032 75.7488 5.52474 76.3923 5.87358C77.0489 6.20901 77.561 6.73229 77.9287 7.4434C78.3096 8.14109 78.5 9.04004 78.5 10.1403V16.339H75.427V10.6233C75.427 9.75115 75.2497 9.10713 74.8952 8.6912C74.5406 8.27526 74.0415 8.0673 73.3981 8.0673C72.9516 8.0673 72.551 8.17463 72.1964 8.38931C71.8419 8.59057 71.5661 8.89916 71.3691 9.31509C71.1721 9.73103 71.0736 10.261 71.0736 10.905V16.339H68.0006V10.6233C68.0006 9.75115 67.8233 9.10713 67.4688 8.6912C67.1273 8.27526 66.6349 8.0673 65.9914 8.0673C65.5449 8.0673 65.1443 8.17463 64.7898 8.38931C64.4352 8.59057 64.1594 8.89916 63.9624 9.31509C63.7654 9.73103 63.6669 10.261 63.6669 10.905V16.339H60.594V5.51132H63.529V8.46981L62.9775 7.6044C63.3452 6.86646 63.8639 6.30964 64.5337 5.93396C65.2166 5.54486 65.9914 5.35032 66.8581 5.35032C67.8299 5.35032 68.677 5.60524 69.3992 6.11509C70.1347 6.61153 70.6206 7.37631 70.8569 8.40943L69.7735 8.10755C70.1281 7.26226 70.6928 6.5914 71.4676 6.09497C72.2555 5.59853 73.1551 5.35032 74.1663 5.35032Z" fill="#FEFFFF"/>
</svg>
