<svg width="181" height="181" viewBox="0 0 181 181" fill="none" xmlns="http://www.w3.org/2000/svg">
<path d="M75.9309 7.46948C84.979 3.11211 95.519 3.11211 104.567 7.46948L146.296 27.5649C155.344 31.9222 161.915 40.1627 164.15 49.9537L174.456 95.1076C176.691 104.899 174.346 115.174 168.084 123.026L139.207 159.237C132.945 167.088 123.449 171.661 113.407 171.661H67.0914C57.0487 171.661 47.5525 167.088 41.291 159.237L12.414 123.026C6.15245 115.174 3.80709 104.899 6.0418 95.1076L16.3479 49.9536C18.5826 40.1627 25.1542 31.9222 34.2024 27.5649L75.9309 7.46948Z" fill="#F5F590"/>
<path d="M106.749 108.507H104.722C102.589 108.507 100.562 109.334 99.069 110.827L94.509 115.334C92.429 117.387 89.0423 117.387 86.9623 115.334L82.4023 110.827C80.909 109.334 78.8557 108.507 76.749 108.507H74.749C70.3224 108.507 66.749 104.961 66.749 100.588V71.4941C66.749 67.1208 70.3224 63.5742 74.749 63.5742H106.749C111.176 63.5742 114.749 67.1208 114.749 71.4941V100.588C114.749 104.934 111.176 108.507 106.749 108.507Z" stroke="#292D32" stroke-width="2.5" stroke-miterlimit="10" stroke-linecap="round" stroke-linejoin="round"/>
<path d="M91.4957 98.4677C91.0957 98.601 90.429 98.601 90.0024 98.4677C86.5357 97.2677 78.749 92.3343 78.749 83.9343C78.749 80.2277 81.7357 77.241 85.4157 77.241C87.6024 77.241 89.5224 78.281 90.749 79.9076C91.9757 78.281 93.8957 77.241 96.0824 77.241C99.7624 77.241 102.749 80.2277 102.749 83.9343C102.722 92.3343 94.9624 97.2677 91.4957 98.4677Z" stroke="#292D32" stroke-width="2.5" stroke-linecap="round" stroke-linejoin="round"/>
</svg>
