<svg width="512" height="512" viewBox="0 0 512 512" fill="none" xmlns="http://www.w3.org/2000/svg">
<circle cx="73.4959" cy="310.906" r="45.8414" fill="#6E2FEB"/>
<path d="M404.88 155.253C420.292 155.253 433.897 158.451 445.696 164.848C457.737 170.998 467.128 180.593 473.87 193.633C480.854 206.426 484.345 222.91 484.345 243.084V356.747H427.997V251.941C427.997 235.949 424.747 224.14 418.245 216.513C411.743 208.886 402.593 205.073 390.793 205.073C382.606 205.073 375.262 207.041 368.76 210.977C362.258 214.668 357.201 220.326 353.589 227.953C349.977 235.58 348.171 245.298 348.171 257.107V356.747H291.823V251.941C291.823 235.949 288.572 224.14 282.071 216.513C275.81 208.886 266.78 205.073 254.98 205.073C246.793 205.073 239.449 207.041 232.947 210.977C226.445 214.668 221.388 220.326 217.776 227.953C214.164 235.58 212.358 245.298 212.358 257.107V356.747H156.01V158.205H209.83V212.454L199.716 196.585C206.459 183.054 215.97 172.844 228.251 165.955C240.773 158.82 254.98 155.253 270.873 155.253C288.693 155.253 304.225 159.927 317.469 169.276C330.954 178.379 339.863 192.403 344.198 211.346L324.332 205.811C330.833 190.311 341.188 178.01 355.395 168.907C369.843 159.804 386.338 155.253 404.88 155.253Z" fill="#FEFFFF"/>
</svg>
