<svg width="53" height="46" viewBox="0 0 53 46" fill="none" xmlns="http://www.w3.org/2000/svg">
<path d="M26.6191 35.5707H11.8894L8.88011 44.8757C8.84648 45.0453 8.75066 45.1962 8.61146 45.2988C8.47226 45.4014 8.29974 45.4482 8.12779 45.4301H0.683767C0.248213 45.4301 0.129426 45.1925 0.248213 44.7174L12.9981 8.01199C13.1169 7.61603 13.2357 7.18048 13.394 6.70533C13.5534 5.85672 13.6329 4.99504 13.6316 4.1316C13.6197 4.03243 13.6458 3.93244 13.7045 3.85167C13.7633 3.7709 13.8504 3.71531 13.9484 3.69604H24.2037C24.5205 3.69604 24.6789 3.81483 24.7185 4.01281L39.1709 44.7965C39.2897 45.2321 39.1709 45.4301 38.775 45.4301H30.4994C30.3595 45.4436 30.2193 45.4073 30.1034 45.3276C29.9875 45.248 29.9034 45.13 29.8659 44.9945L26.6191 35.5707ZM14.186 27.5327H24.2433C24.0057 26.7012 23.689 25.7113 23.3326 24.6818C22.9762 23.6524 22.6199 22.4645 22.2635 21.2766C21.9071 20.0887 21.5112 18.8613 21.1152 17.6338C20.7193 16.4063 20.3629 15.258 20.0461 14.1098C19.7294 12.9615 19.4522 11.9716 19.175 11.0213H19.0958C18.74 12.747 18.2906 14.4522 17.7496 16.1291C17.1556 18.0297 16.5617 20.0095 15.9282 21.9893C15.3738 24.0087 14.7799 25.8697 14.186 27.5327Z" fill="#FF9A00"/>
<path d="M47.8029 10.467C47.153 10.4813 46.5067 10.3661 45.9017 10.1281C45.2967 9.89021 44.7451 9.53432 44.2789 9.08118C43.3717 8.08927 42.8886 6.78184 42.9327 5.43836C42.9093 4.78378 43.0241 4.13161 43.2697 3.5244C43.5154 2.91719 43.8862 2.36858 44.3581 1.91433C45.3098 1.01478 46.5726 0.518181 47.8821 0.528477C49.4264 0.528477 50.6143 1.00363 51.4854 1.91433C52.3626 2.87443 52.8312 4.13847 52.792 5.43836C52.8162 6.10736 52.706 6.77441 52.468 7.40009C52.2299 8.02578 51.8689 8.5974 51.4062 9.08118C50.9396 9.55642 50.3765 9.92604 49.7549 10.1651C49.1334 10.4042 48.4677 10.5071 47.8029 10.467ZM43.3682 44.8362V14.3474C43.3682 13.9515 43.5266 13.7931 43.883 13.7931H51.7229C52.0793 13.7931 52.2377 13.9911 52.2377 14.3474V44.8362C52.2377 45.2718 52.0793 45.4698 51.7229 45.4698H43.9622C43.8789 45.4766 43.7952 45.4646 43.7173 45.4346C43.6394 45.4046 43.5693 45.3574 43.5122 45.2964C43.4551 45.2355 43.4125 45.1625 43.3875 45.0828C43.3626 45.0031 43.356 44.9188 43.3682 44.8362Z" fill="#FF9A00"/>
</svg>
