<svg width="37" height="56" viewBox="0 0 37 56" fill="none" xmlns="http://www.w3.org/2000/svg">
<path d="M9.41659 55.2499C14.4332 55.2499 18.4999 51.1832 18.4999 46.1666V37.0833H9.41659C4.4 37.0833 0.333252 41.15 0.333252 46.1666C0.333252 51.1832 4.4 55.2499 9.41659 55.2499Z" fill="#0ACF83"/>
<path d="M0.333252 28.0001C0.333252 22.9835 4.4 18.9167 9.41659 18.9167H18.4999V37.0834H9.41659C4.4 37.0834 0.333252 33.0167 0.333252 28.0001Z" fill="#A259FF"/>
<path d="M0.333252 9.83334C0.333252 4.81675 4.4 0.75 9.41659 0.75H18.4999V18.9167H9.41659C4.4 18.9167 0.333252 14.8499 0.333252 9.83334Z" fill="#F24E1E"/>
<path d="M18.5 0.75H27.5833C32.5999 0.75 36.6667 4.81675 36.6667 9.83334C36.6667 14.8499 32.5999 18.9167 27.5833 18.9167H18.5V0.75Z" fill="#FF7262"/>
<path d="M36.6667 28.0001C36.6667 33.0167 32.5999 37.0834 27.5833 37.0834C22.5667 37.0834 18.5 33.0167 18.5 28.0001C18.5 22.9835 22.5667 18.9167 27.5833 18.9167C32.5999 18.9167 36.6667 22.9835 36.6667 28.0001Z" fill="#1ABCFE"/>
</svg>
