<svg width="59" height="44" viewBox="0 0 59 44" fill="none" xmlns="http://www.w3.org/2000/svg">
<path d="M0.39209 42.3984V0.916039C0.39209 0.633846 0.51303 0.472592 0.795223 0.472592C1.48055 0.472592 2.12556 0.472593 3.05277 0.432279C3.97997 0.391966 5.02812 0.391966 6.11658 0.351653C7.20504 0.311339 8.37413 0.311339 9.62384 0.271026C10.8736 0.230712 12.0829 0.230713 13.2923 0.230713C16.598 0.230713 19.3393 0.633845 21.5969 1.48042C23.6206 2.16767 25.4659 3.29689 26.9989 4.78612C28.2979 6.08937 29.3015 7.6567 29.9417 9.38183C30.552 11.0619 30.8657 12.8351 30.869 14.6226C30.869 18.0895 30.0627 20.9518 28.4502 23.2093C26.8301 25.4638 24.5683 27.1777 21.9597 28.1275C19.2184 29.1354 16.1949 29.4982 12.8892 29.4982C11.9217 29.4982 11.2767 29.4982 10.8736 29.4579C10.4704 29.4175 9.90603 29.4175 9.14008 29.4175V42.3581C9.14908 42.4245 9.14466 42.4919 9.12709 42.5565C9.10952 42.6211 9.07916 42.6815 9.0378 42.7342C8.99644 42.7868 8.94493 42.8306 8.88633 42.8629C8.82772 42.8953 8.76321 42.9156 8.69663 42.9225H0.87585C0.553343 42.9225 0.39209 42.7613 0.39209 42.3984ZM9.18039 8.25306V21.7983C9.74478 21.8386 10.2688 21.879 10.7526 21.879H12.8892C14.463 21.8808 16.0273 21.636 17.5252 21.1533C18.8104 20.7754 19.9586 20.0333 20.8309 19.0167C21.6775 18.0089 22.0807 16.6382 22.0807 14.8644C22.1186 13.6047 21.797 12.3602 21.1534 11.2766C20.4813 10.2299 19.4927 9.42488 18.3315 8.9787C16.8181 8.38596 15.1988 8.11149 13.5745 8.17243C12.5264 8.17243 11.5992 8.17244 10.8332 8.21275C10.2822 8.17673 9.72903 8.19022 9.18039 8.25306Z" fill="#31A8FF"/>
<path d="M56.0244 19.3393C54.8072 18.6982 53.5037 18.2366 52.1543 17.9687C50.6724 17.633 49.1587 17.4573 47.6392 17.4446C46.8234 17.4165 46.0079 17.5116 45.2204 17.7268C44.7183 17.8313 44.2729 18.1186 43.9707 18.5331C43.767 18.8602 43.6556 19.2362 43.6482 19.6215C43.667 20.005 43.8083 20.3724 44.0514 20.6697C44.4334 21.1178 44.8989 21.4875 45.422 21.7581C46.3492 22.2419 47.3167 22.6853 48.2843 23.0885C50.4623 23.8217 52.5461 24.8095 54.4925 26.0313C55.8164 26.8638 56.9112 28.014 57.6773 29.3773C58.3251 30.6634 58.6436 32.0901 58.6045 33.5296C58.6372 35.435 58.0888 37.3052 57.0322 38.8913C55.9078 40.5005 54.3388 41.7473 52.5171 42.4792C50.5418 43.3257 48.123 43.7692 45.2204 43.7692C43.38 43.7766 41.5435 43.6011 39.7378 43.2451C38.316 42.9994 36.9332 42.5656 35.6259 41.9551C35.4853 41.8846 35.3684 41.7745 35.2897 41.6384C35.2109 41.5023 35.1736 41.3461 35.1824 41.1891V34.1746C35.1789 34.1057 35.1917 34.037 35.2197 33.974C35.2477 33.9109 35.2902 33.8554 35.3437 33.8118C35.4005 33.7787 35.4664 33.7648 35.5317 33.772C35.5971 33.7793 35.6584 33.8074 35.7065 33.8521C37.2594 34.7676 38.9461 35.4341 40.7053 35.8275C42.2586 36.2316 43.8573 36.4348 45.4623 36.4322C46.9942 36.4322 48.0827 36.2306 48.8083 35.8678C49.132 35.7183 49.4063 35.4796 49.5991 35.1797C49.7919 34.8798 49.8951 34.5311 49.8968 34.1746C49.8968 33.6102 49.5743 33.0862 48.9293 32.5621C48.2842 32.038 46.9539 31.4333 44.9786 30.6674C42.9521 29.9533 41.0277 28.9775 39.2541 27.7648C37.9908 26.8645 36.9442 25.6939 36.1903 24.3382C35.5469 23.0649 35.2284 21.6523 35.2631 20.2262C35.269 18.506 35.7428 16.8198 36.6337 15.3483C37.6578 13.73 39.1277 12.442 40.8666 11.6395C42.7613 10.672 45.1398 10.2285 48.0021 10.2285C49.6749 10.229 51.3455 10.3502 53.0009 10.5913C54.1911 10.7524 55.3561 11.064 56.4679 11.5185C56.645 11.5813 56.79 11.7118 56.871 11.8814C56.9175 12.0387 56.9445 12.2012 56.9516 12.3651V18.9362C56.9523 19.0145 56.9343 19.0919 56.8993 19.162C56.8642 19.2321 56.8131 19.2928 56.75 19.3393C56.5155 19.4236 56.2589 19.4236 56.0244 19.3393Z" fill="#31A8FF"/>
</svg>
