<svg width="65" height="44" viewBox="0 0 65 44" fill="none" xmlns="http://www.w3.org/2000/svg">
<path d="M34.8146 4.1177L23.5558 22.6947L35.5652 42.3975C35.6442 42.5335 35.6709 42.6936 35.6402 42.8478C35.6027 42.998 35.4526 42.8854 35.2274 42.9229H26.6332C26.0328 42.9229 25.6199 42.8854 25.3572 42.5101C24.5691 40.9339 23.7435 39.3952 22.9554 37.8189C22.1672 36.2427 21.3041 34.704 20.4034 33.0902C19.5027 31.4765 18.602 29.8627 17.7013 28.2115H17.6262C16.8381 29.8252 15.9749 31.439 15.1118 33.0527C14.2486 34.6665 13.3854 36.2802 12.5598 37.8565C11.7341 39.4327 10.8334 41.0464 9.97025 42.5851C9.82014 42.9604 9.5199 42.998 9.10708 42.998H0.850656C0.700539 42.998 0.587951 43.073 0.587951 42.8854C0.571202 42.8151 0.569224 42.7421 0.582145 42.6711C0.595065 42.6 0.622602 42.5324 0.66301 42.4725L12.3346 23.3327L0.963243 4.08017C0.850656 3.93006 0.813126 3.77994 0.888185 3.70488C0.93394 3.65138 0.991989 3.60977 1.05735 3.58363C1.12272 3.55748 1.19345 3.54758 1.26348 3.55476H9.78261C9.96012 3.55863 10.1365 3.58383 10.308 3.62982C10.4584 3.71073 10.5871 3.82656 10.6833 3.96759C11.3964 5.58134 12.222 7.1951 13.0852 8.80885C13.9483 10.4226 14.849 11.9988 15.7873 13.5751C16.7255 15.1513 17.5136 16.7275 18.3017 18.3413H18.3768C19.1649 16.69 19.9906 15.0762 20.8162 13.5C21.6418 11.9238 22.505 10.3476 23.3682 8.77133C24.2313 7.1951 25.057 5.58134 25.8826 4.04264C25.9111 3.89491 25.9909 3.76199 26.1078 3.66735C26.2564 3.58536 26.4293 3.55876 26.5957 3.59229H34.5144C34.5587 3.58234 34.6046 3.58124 34.6494 3.58906C34.6942 3.59689 34.737 3.61348 34.7753 3.63789C34.8137 3.6623 34.8469 3.69404 34.8729 3.7313C34.899 3.76856 34.9174 3.8106 34.9272 3.855C34.9647 3.89253 34.8896 4.04264 34.8146 4.1177Z" fill="#FF61F6"/>
<path d="M52.153 43.711C49.3712 43.7566 46.6143 43.1796 44.0843 42.0221C41.7303 40.9214 39.7575 39.1446 38.4174 36.9182C37.0288 34.6289 36.3533 31.7767 36.3533 28.3615C36.3152 25.5842 37.0284 22.8482 38.4174 20.4429C39.8416 17.9982 41.9043 15.9873 44.3845 14.6258C47.0115 13.1622 50.164 12.4491 53.8794 12.4491C54.1426 12.4462 54.4058 12.4587 54.6675 12.4867C55.0053 12.5242 55.3806 12.5242 55.8309 12.5617V0.702495C55.8309 0.43979 55.9435 0.289673 56.2062 0.289673H63.8246C63.9088 0.278289 63.9941 0.298999 64.0636 0.347679C64.1332 0.39636 64.1818 0.469441 64.1999 0.552378V36.3552C64.1999 37.0308 64.2374 37.7813 64.275 38.607C64.3125 39.4326 64.3876 40.1457 64.4251 40.7837C64.4331 40.9104 64.4012 41.0365 64.3339 41.1442C64.2666 41.2519 64.1672 41.3358 64.0498 41.3842C62.0841 42.2103 60.0323 42.8145 57.9325 43.1856C56.0251 43.5295 54.0912 43.7054 52.153 43.711ZM55.8309 36.2051V19.6923C55.4967 19.6116 55.1585 19.549 54.8176 19.5046C54.4048 19.4671 53.992 19.4296 53.5792 19.4296C52.1081 19.413 50.6543 19.7475 49.3384 20.4053C48.0559 21.0443 46.9579 22.0003 46.1484 23.1825C45.3227 24.3834 44.9099 25.9972 44.9099 27.9487C44.8772 29.2659 45.0937 30.5774 45.5479 31.8142C45.9109 32.8144 46.4871 33.7236 47.2367 34.4788C47.9602 35.1693 48.8337 35.683 49.7887 35.9799C50.794 36.3092 51.8458 36.4739 52.9036 36.4678C53.4666 36.4678 53.992 36.4303 54.4799 36.3928C54.9384 36.4255 55.3987 36.3615 55.8309 36.2051Z" fill="#FF61F6"/>
</svg>
